<?xml version="1.0" encoding="UTF-8" standalone="no"?>
<!-- Created with Inkscape (http://www.inkscape.org/) -->
<svg xmlns:dc="http://purl.org/dc/elements/1.1/" xmlns:cc="http://creativecommons.org/ns#" xmlns:rdf="http://www.w3.org/1999/02/22-rdf-syntax-ns#" xmlns:svg="http://www.w3.org/2000/svg" xmlns="http://www.w3.org/2000/svg" xmlns:xlink="http://www.w3.org/1999/xlink" xmlns:sodipodi="http://sodipodi.sourceforge.net/DTD/sodipodi-0.dtd" xmlns:inkscape="http://www.inkscape.org/namespaces/inkscape" id="svg2816" version="1.1" inkscape:version="0.47 r22583" width="648" height="340" sodipodi:docname="Logo Final Fantasy VII.svg">
  <metadata id="metadata2822">
    <rdf:RDF>
      <cc:Work rdf:about="">
        <dc:format>image/svg+xml</dc:format>
        <dc:type rdf:resource="http://purl.org/dc/dcmitype/StillImage"/>
        <dc:title/>
      </cc:Work>
    </rdf:RDF>
  </metadata>
  <defs id="defs">
    <linearGradient id="linearGradient_1">
      <stop id="stop_1" offset="0" style="stop-color:#edeff3;stop-opacity:1;"/>
      <stop id="stop_2" offset="0.1147" style="stop-color:#c3c8d9;stop-opacity:1"/>
      <stop id="stop_3" offset="0.2702" style="stop-color:#809cc7;stop-opacity:1;"/>
      <stop id="stop_4" offset="0.6008" style="stop-color:#4a7c75;stop-opacity:1"/>
      <stop id="stop_5" offset="0.8886" style="stop-color:#284b39;stop-opacity:1"/>
      <stop id="stop_6" offset="1" style="stop-color:#171212;stop-opacity:1;"/>
    </linearGradient>
    <linearGradient inkscape:collect="always" xlink:href="#linearGradient_1" id="linearGradient_2" x1="130" y1="275" x2="375" y2="95" gradientUnits="userSpaceOnUse"/>
  </defs>
  <path d="m 31.089469,122.63711 c -4e-6,-2.47741 -1.393606,-3.71617 -4.18081,-3.71628 l 0,-3.01947 35.536886,0 0,38.09182 -3.251741,0 c -1.083945,-12.0778 -2.787236,-20.32328 -5.109879,-24.73646 -2.322697,-4.41297 -5.806702,-6.69693 -10.452025,-6.85188 l 0,39.48543 c 4.180789,1.39367 6.348614,-4.413 6.503482,-17.42004 l 3.251741,0.23227 0,47.61478 -3.251741,0 C 50.135359,179.7749 47.967534,173.03915 43.6319,172.11003 l 0,49.47292 c -1.7e-5,4.4905 1.083896,6.19379 3.251741,5.10988 l 0.232267,3.48401 -19.510447,0 -0.232268,-3.48401 c 2.632359,0.92907 3.871117,-0.6968 3.716276,-4.87761 l 0,-99.17811" transform="scale(0.92906894,1.0763464)" id="text_F_1"/>
  <path d="m 73.709709,121.55793 0,-3.32385 18.281173,0 -0.237418,3.32385 c -2.215915,0.31668 -3.323864,1.89946 -3.323849,4.74836 l 0,99.24065 c 0.07912,4.66923 1.345351,6.88512 3.798685,6.6477 l 0,3.32385 -18.518591,0 0,-3.32385 c 2.215898,0.31656 3.323846,-1.89933 3.32385,-6.6477 l 0,-99.24065 c -4e-6,-2.8489 -1.107952,-4.43168 -3.32385,-4.74836" transform="scale(0.94967132,1.0529959)" id="text_I"/>
  <path d="m 115.07434,123.18496 c 0.46223,-2.77329 -0.77039,-4.46814 -3.69786,-5.08456 l 0,-3.00451 16.40925,0 9.01354,64.48143 c 0,0 3e-5,-38.21122 0,-57.31683 0,-2.31105 -0.92449,-3.62071 -2.7734,-3.92897 l 0,-3.23563 14.09809,0 0,3.00451 c -2.00304,0.46235 -2.77339,3.69653 -2.77339,9.70688 l 0,101.22892 -10.86246,0 -11.09358,-72.5705 0,64.94367 c -0.46225,3.38971 0.69333,5.00752 3.46674,4.85344 l 0,2.77339 -15.71591,0 0.23112,-2.54228 c 2.61931,-0.30815 3.85193,-2.08004 3.69786,-5.31567 l 0,-97.99329" transform="scale(0.924465,1.0817067)" id="text_N_1"/>
  <path d="m 182.09649,210.04771 0,0 m -10.10738,-11.15298 4.53089,0 -2.32354,-37.64129 -2.20735,37.64129 m 3.60148,31.6001 0,-1.62648 c 1.85881,-1.85882 2.47842,-8.51962 1.85883,-19.98241 l -5.80885,0 c -0.92942,11.46279 -0.38726,18.12359 1.62648,19.98241 l 0,1.62648 -15.10299,0 0,-1.62648 c 1.23922,-0.1549 2.28481,-0.65833 3.13678,-1.5103 0.85196,-0.85196 3.44657,-37.98978 7.78384,-111.41358 l 12.08239,0 c 5.73137,73.4238 8.90686,110.56162 9.5265,111.41358 0.61958,0.85197 1.54899,1.3554 2.78825,1.5103 l 0,1.62648 -17.89123,0" transform="scale(0.92941462,1.0759461)" id="text_A_1"/>
  <path d="m 212.55924,123.46096 c -0.15243,-3.96284 -1.67663,-6.02052 -4.57263,-6.17305 l 0,-3.42947 20.80546,0 0,3.20084 c -3.04844,0.30495 -4.57264,2.43884 -4.57263,6.40168 l 0.0572,96.1395 c 5.75387,-0.38104 10.23123,-13.37491 13.43209,-38.98165 l 2.97221,0 0,46.18354 -32.92292,0 0,-3.20084 c 3.04842,-0.30484 4.64883,-2.13388 4.80126,-5.48715 l 0,-94.6534" transform="scale(0.91452561,1.0934631)" id="text_L"/>
  <path d="m 272.61187,122.44181 c -1e-5,-2.47346 -1.39139,-3.71025 -4.17416,-3.71036 l 0,-3.01466 35.4803,0 0,38.03117 -3.24656,0 c -1.08222,-12.05858 -2.7828,-20.29093 -5.10174,-24.69707 -2.319,-4.40595 -5.79746,-6.68627 -10.43539,-6.84098 l 0,39.42256 c 4.17414,1.39145 6.33851,-4.40598 6.49313,-17.39231 l 3.24656,0.2319 0,47.53896 -3.24656,0 c -2e-5,-12.52241 -2.1644,-19.24742 -6.49313,-20.17507 l 0,49.39414 c -10e-6,4.48335 1.08217,6.18393 3.24657,5.10174 l 0.23189,3.47846 -19.47937,0 -0.2319,-3.47846 c 2.62817,0.92759 3.86495,-0.69569 3.71036,-4.86984 l 0,-99.02018" transform="scale(0.92758947,1.0780631)" id="text_F_2"/>
  <path d="m 332.89144,210.72105 0,0 m -10.13979,-11.18873 4.54543,0 -2.33099,-37.76196 -2.21444,37.76196 m 3.61303,31.7014 0,-1.63169 c 1.86477,-1.86479 2.48637,-8.54694 1.86479,-20.04647 l -5.82746,0 c -0.93241,11.49953 -0.38851,18.18168 1.63169,20.04647 l 0,1.63169 -15.15141,0 0,-1.63169 c 1.24319,-0.1554 2.29214,-0.66044 3.14683,-1.51514 0.85469,-0.85469 3.45762,-38.11157 7.8088,-111.77074 l 12.12113,0 c 5.74973,73.65917 8.93541,110.91605 9.55703,111.77074 0.62157,0.8547 1.55396,1.35974 2.79719,1.51514 l 0,1.63169 -17.94859,0" transform="scale(0.93239402,1.0725079)" id="text_A_2"/>
  <path d="m 356.86477,124.8931 c 0,-2.81191 -0.78108,-4.53009 -3.74914,-5.15506 l 0,-3.04617 16.63679,0 9.13852,65.37556 0,-58.11161 c -2e-5,-2.3431 -0.93731,-3.67092 -2.81185,-3.98346 l 0,-3.28049 14.29358,0 0,3.04617 c -2.03082,0.46876 -2.9681,3.74925 -2.81185,9.84148 l 0,102.6326 -11.01309,0 -11.24741,-73.57679 c 0,0 0,43.89613 0,65.8442 0,3.45217 0.70295,5.07696 3.51482,4.92074 l 0,2.81185 -15.93383,0 0.23432,-2.57753 c 2.65564,-0.31243 3.74914,-2.10887 3.74914,-5.38938" transform="scale(0.93728402,1.0669125)" id="text_N_2"/>
  <path d="m 446.12115,114.90739 -0.0476,40.09703 -3.91542,0 c -0.76776,-16.4293 -2.9174,-26.17944 -6.44892,-29.25046 l 0,94.43063 c -2e-5,3.6851 1.68898,5.98829 5.06701,6.90956 l 0,1.61223 -21.41963,0 0,-1.61223 c 3.68508,-0.92127 5.37409,-3.30123 5.06701,-7.13988 l 0,-94.20031 c -3.83865,2.91747 -6.29538,12.66761 -7.3702,29.25046 l -3.22446,0 0.0254,-40.09703" transform="scale(0.92127442,1.0854529)" id="text_T"/>
  <path d="m 482.91433,207.14886 0,0 m -9.96789,-10.99905 4.46837,0 -2.29147,-37.12181 -2.1769,37.12181 m 3.55178,31.16399 0,-1.60403 c 1.83315,-1.83317 2.44421,-8.40205 1.83317,-19.70664 l -5.72867,0 c -0.9166,11.30459 -0.38193,17.87347 1.60403,19.70664 l 0,1.60403 -14.89456,0 0,-1.60403 c 1.22212,-0.15276 2.25328,-0.64925 3.09349,-1.48946 0.8402,-0.8402 3.39901,-37.46549 7.67642,-109.87597 l 11.91565,0 c 5.65226,72.41048 8.78393,109.03577 9.39502,109.87597 0.61103,0.84021 1.52761,1.3367 2.74976,1.48946 l 0,1.60403 -17.64431,0" transform="scale(0.91658788,1.0910029)" id="text_A_3"/>
  <path d="m 505.95099,188.75643 12.46069,-6.4611 c -1.53837,23.99839 -1.11532,36.61291 1.26915,37.84358 2.38443,1.23069 3.73049,0.61535 4.03818,-1.84603 1.38451,-9.23012 1.38451,-18.53717 0,-27.92118 -0.46152,-4.76886 -1.38453,-8.15325 -2.76904,-10.15316 -8.61481,-13.38364 -13.53754,-23.38295 -14.76823,-29.99796 l -0.23075,-22.8446 c 1.69219,-7.99935 6.30726,-11.99908 13.84521,-11.99919 8.46094,0.15395 12.92218,5.53819 13.38371,16.15275 l 0.69226,14.76823 -11.53768,7.38411 c 0.15382,-9.23006 0.15382,-17.84485 0,-25.8444 -10e-6,-3.84578 -0.88457,-5.80719 -2.65366,-5.88421 -1.76913,-0.0768 -2.65368,1.73075 -2.65367,5.42271 l 0.23075,23.07535 c 7.84561,12.6146 13.15293,22.30624 15.922,29.07495 2.76901,6.76882 3.76894,16.46046 2.9998,29.07495 -0.76921,13.99906 -5.76887,20.92166 -14.99899,20.76782 -8.92247,-0.4615 -13.99905,-6.63415 -15.22973,-18.51797 l 0,-22.09465" transform="scale(0.92301431,1.0834068)" id="text_S"/>
  <path d="m 546.0789,121.08421 0,2.87157 c -3.86536,0.0128 -4.22759,4.02827 -3.11086,14.47746 1.1167,10.44938 2.82204,18.0414 4.46914,24.28863 2.08946,-15.7935 3.14846,-26.6815 3.54731,-31.22824 0.3988,-4.54653 -0.41313,-7.47494 -2.99121,-7.53785 l 0,-2.87157 15.0757,0 0,3.11086 c -2.55253,0.15965 -3.4784,1.30136 -3.82875,3.35016 l -11.00766,64.37086 0,35.41593 c -0.15955,3.98829 1.03694,6.14196 3.58946,6.46102 l 0,3.11086 -17.22938,0 0,-3.35016 c 2.23343,-0.15953 4.4867,-2.17997 4.48671,-6.16826 l 0,-35.51999 -5.22364,-60.7308 c -0.49354,-5.73795 -1.71032,-7.41821 -5.24549,-7.41821 l -0.2393,-2.63227 17.70797,0" transform="scale(0.95718745,1.0447274)" id="text_Y"/>
  <path d="m 542.40829,235.47126 c -0.81994,1e-5 -1.58226,0.14909 -2.28698,0.44723 -0.70473,0.29139 -1.35186,0.73184 -1.94139,1.32136 -0.58954,0.58955 -1.03338,1.23668 -1.33153,1.94139 -0.29138,0.69796 -0.43707,1.46029 -0.43706,2.28698 -10e-6,0.81993 0.14568,1.58226 0.43706,2.28698 0.29815,0.69795 0.74199,1.3417 1.33153,1.93122 0.58275,0.58276 1.22649,1.01983 1.93123,1.3112 0.71149,0.29138 1.4772,0.43707 2.29714,0.43707 0.83346,0 1.59918,-0.1423 2.29714,-0.4269 0.69794,-0.29138 1.34168,-0.73183 1.93123,-1.32137 0.58951,-0.58952 1.02997,-1.23327 1.32136,-1.93122 0.29814,-0.70472 0.44721,-1.46705 0.44723,-2.28698 -2e-5,-0.82669 -0.14909,-1.58902 -0.44723,-2.28698 -0.29139,-0.70471 -0.73185,-1.35184 -1.32136,-1.94139 -0.59633,-0.59629 -1.24684,-1.04013 -1.95156,-1.33152 -0.69796,-0.29137 -1.4569,-0.43706 -2.27681,-0.43707 m -0.57937,2.99848 -0.35575,0 0,2.10402 0.35575,0 c 0.52854,1e-5 0.92494,-0.0881 1.18923,-0.26427 0.27104,-0.18295 0.40656,-0.45061 0.40657,-0.80299 -10e-6,-0.35235 -0.13215,-0.61324 -0.39641,-0.78265 -0.2575,-0.1694 -0.6573,-0.2541 -1.19939,-0.25411 m 0.37608,-1.40268 c 1.19261,1e-5 2.08368,0.2033 2.67322,0.60986 0.58952,0.39981 0.88429,1.00967 0.8843,1.82958 -10e-6,0.58277 -0.17958,1.06388 -0.53871,1.44334 -0.35238,0.37948 -0.85382,0.62681 -1.50432,0.742 0.27781,0.14908 0.53531,0.35914 0.77249,0.63019 0.24393,0.27105 0.46416,0.60309 0.66068,0.9961 l 1.12824,2.24632 -2.32763,0 -1.08759,-2.165 c -0.2575,-0.52854 -0.48451,-0.90124 -0.68101,-1.11808 -0.19652,-0.22361 -0.39303,-0.33542 -0.58953,-0.33542 l -0.12197,0 0,3.6185 -2.16501,0 0,-8.49739 2.89684,0 m 0.20329,-3.16111 c 1.02997,1e-5 1.98881,0.18636 2.87651,0.55904 0.89445,0.37271 1.71098,0.92836 2.4496,1.66695 0.7386,0.73862 1.29086,1.55177 1.65679,2.43944 0.3659,0.8877 0.54886,1.85331 0.54888,2.89684 -2e-5,1.02999 -0.18298,1.98883 -0.54888,2.87651 -0.36593,0.88091 -0.91819,1.69067 -1.65679,2.42928 -0.73862,0.73861 -1.55515,1.29426 -2.4496,1.66695 -0.8877,0.37269 -1.84654,0.55904 -2.87651,0.55904 -1.03,0 -1.99222,-0.18635 -2.88668,-0.55904 -0.88769,-0.37269 -1.70083,-0.92834 -2.43944,-1.66695 -0.73861,-0.73861 -1.29087,-1.54837 -1.65679,-2.42928 -0.36592,-0.88768 -0.54887,-1.84652 -0.54887,-2.87651 0,-1.04353 0.18295,-2.00914 0.54887,-2.89684 0.36592,-0.88767 0.91818,-1.70082 1.65679,-2.43944 0.73861,-0.73859 1.55175,-1.29424 2.43944,-1.66695 0.89446,-0.37268 1.85668,-0.55903 2.88668,-0.55904" id="text_R"/>
  <path d="m 599.26411,125.04257 0.72279,-3.61395 15.41951,0 0,3.61395 c -3.37306,-0.16051 -4.89894,1.68662 -4.57767,5.54138 l -7.46882,108.90027 -10.60091,0 -11.3237,-109.62306 c -0.32125,-2.40918 -2.16838,-4.09569 -5.54139,-5.05952 l 0,-3.37302 21.20182,0 0,3.61395 c -3.37303,0.16073 -4.97923,1.92755 -4.81859,5.30045 l 5.78231,69.62871 4.8186,-69.38778 c 0.32121,-3.69414 -0.88344,-5.54127 -3.61395,-5.54138" transform="scale(0.96371919,1.0376467)" id="text_V"/>
  <path d="m 595,126 0,3.46875 c 1.59605,0.32938 2.40625,1.97421 2.40625,4.9375 l 0,103.21875 c 0,4.93903 -0.8102,7.23552 -2.40625,6.90625 l 0,3.46875 25.09375,0 0,-3.46875 c -1.60225,0.24696 -2.41709,-2.04958 -2.46875,-6.90625 l 0,-103.21875 c -10e-6,-2.96326 0.70905,-4.60812 2.15625,-4.9375 L 619.9375,126 595,126 z m 13,3.46875 c 1.44719,0.32938 2.1875,1.97424 2.1875,4.9375 l 0,103.21875 c 0,4.5543 -0.61321,6.86277 -1.84375,6.9375 l -0.34375,0 c -1.53629,-0.0965 -2.35316,-2.41438 -2.40625,-6.9375 l 0,-103.21875 c -2e-5,-2.96329 0.8102,-4.60812 2.40625,-4.9375 z" id="text_II"/>
  <rect id="rect" width="620" height="6" x="13" y="259" ry="0"/>
  <path style="fill:url(#linearGradient_2);stroke:none;fill-opacity:1" d="M 565.375,3.8125 C 564.31371,3.7779444 564.65684,5 561,5 c -2.58177,0 -4.50936,1.8930177 -5.9375,2.0625 -2.39937,0.2847427 -1.67527,1.4054091 -5.0625,0.5 -2.45816,-0.6570683 -3.14893,0.5864258 -4,1.4375 -2,2 -3.00989,1.009892 -4,2 -1,1 -0.89128,2.166667 -1.67654,3 -1.02784,1.090771 -2.376,-0.336435 -3.32346,1.558697 -1,2.000226 -2.64691,-1.088215 -4,0.441303 -0.89967,1.016979 -1.727,3.145285 -3,4 -1.273,0.854715 -3.37388,1.119141 -5,2 -3.74102,2.026494 -4.88086,4.39008 -10.4375,5.0625 -4.56293,0 -8.20043,4.268569 -10.5625,2.9375 -1.3773,-1.377298 3.50801,-5.756719 8,-6.5625 4.24959,-0.758567 7.60793,-2.430295 7.0625,-3.375 C 518.63414,19.320571 515.57326,19.665969 514,21 c -1.70246,1.443589 -5.14308,1.319734 -5.85297,0.617733 C 506.699,20.18582 522.3476,13.77341 521.09375,12.0625 520.7017,11.527541 516.57806,13.298146 516,14 c -1.35085,1.640148 -4,0.486188 -5,2 -0.70174,1.062304 -2.30618,0.497606 -3,1 -2,1.448187 -3,-1 -4,1 -0.69277,1.385546 -1.98683,0.08343 -3,3 -0.53125,1.529292 -2.89891,0.73286 -5,2 -0.93061,0.56124 -2,-1 -3,-1 -2,0 -1,2 -3,2 -2.24698,0 -3.37022,2.847506 -4,2.588103 -1.93713,-0.797899 2.86872,-4.47216 2,-5.588103 -0.41332,-0.530942 -4.20239,1.521329 -6.60297,3 C 480.58529,24.5 477,25 477,27 c 0,1.677439 -2,0 -3.60809,2 C 472.09192,30.616821 470,29 468.54797,31 466.99143,33.143935 463.68361,31.514455 460,33.613931 457.31491,35.144302 455,37 454.68727,38.358509 454.34571,39.842304 451,39 449,40 c -1.02411,0.512055 -1.53125,0.4375 -2,2 -0.82715,2.757165 -4.42451,1.791553 -6,2.474285 C 434.98555,47.080616 438,50 433,50 c -2,0 0,2 -3.35286,2 -3,0 -0.46352,2.414732 -1.64714,3 -1,0.494994 -1.83274,-1.677387 -2.70595,-1.205836 C 424.41493,54.268907 425,55.552705 424,56 c -1.04116,0.465707 -3.00763,-0.606226 -4,0 -3.82214,2.334896 -7.43902,5.54868 -12,8 -7.45255,4.005405 -16.82526,7.639345 -19,10 -0.83361,0.904873 -2.74833,0.374167 -4,1 -4,2 -8.13525,8.264332 -11,6 -2.53033,-2 6,-4 9,-7 4.4087,-4.408696 10.04075,-7.21146 15,-11 3.03869,-2.321359 4.62583,-6.137636 6.0625,-7.4375 C 407.99995,52 411.52942,52.345665 415,50 c 4.06905,-2.750154 6.53969,-6.460312 6,-7 -1,-1 -5,6 -7,5 -0.61366,-0.306831 2,-2 1,-3 -0.54475,-0.54475 -4.78586,2.898981 -10,6 -4.35748,2.591531 -9.46406,4.614267 -13,7 -5,4 -9.84302,3.905811 -15,7 -10.4495,6.269699 -19,12 -20,10 -1.14674,-2.293484 7,-7 15,-12 6.55007,-4.093793 14,-6 13,-8 -0.63246,-1.264911 -6.19104,1.172001 -10.67668,4.415851 -5.53125,4 -5.07768,0.912198 -10.32332,4.584149 -10,7 -21.54324,12.854724 -22,12 -1.05342,-1.971257 6.76932,-3.728718 6,-6.5 -0.55326,-1.992959 4,-5.5 5,-4.5 1.02197,1.021975 -3.06445,3.064579 -2,4.0625 C 352,70 354.5444,66 356,66 c 1,0 1,-1.236357 1,-2 0,-2 2.7341,-1.517088 5,-3 3.85153,-2.520615 7.62928,-6.217363 7,-7 -0.60223,-0.748996 -17,10 -20,10 -5.02358,0 -23.4723,15.533409 -25,14 -2.46334,-2.472548 6,-6 12,-10 6.51882,-4.345881 14.14867,-7.859726 13.5625,-8.875 C 349.22455,58.539652 335.17393,65.913035 321,73 c -12,6 -23,15 -24,14 -1,-1 7.94424,-6.587006 7,-7.53125 -0.65614,-0.656138 -10.67298,6.698675 -21,12.53125 -7.13684,4.030801 -14.71161,6.598525 -18,7.5625 -1.38961,0.407356 -2.90298,0.417933 -21.5625,0.4375 C 216.00004,100.0288 187,103 167,123 l 3,0 c 18,-16 41.87493,-19 58,-19 8.87527,0 15.80257,0.86881 24,3.5 9.34644,3 13.50885,5.4823 13,6.5 -1,2 -2.5782,-0.84298 -4,0.59498 -1.49189,1.50885 -4.02138,-1.61102 -5.9375,-1.62623 -3.06256,-0.0243 -5.0625,-0.37827 -5.0625,0.46875 0,0.88591 4,1.97417 -2,1.97417 -4.93356,0 -13,-1.40956 -13,-2.41167 0,-3 16,-0.40942 16,-3 0,-1 -14.48541,0.45578 -16.48541,-0.54422 -3.46749,-1.73375 -14.62743,-1.27108 -17.98153,-0.0252 C 215,110 208,108.9375 208,111 c 0,0.9375 1.94849,0.45258 4.65625,1 1.92819,0.38982 4.46315,1.85628 5.96875,2 4.07962,0.38942 7.65451,-1.60228 10.375,1 3.52832,3.375 -7,2 -17,2 -2.33219,0 -0.81196,2 1,2 0.97495,0 8.01138,-0.74348 10,2 2.63299,3.63245 7,2.34751 7,4 0,1 -5.70222,1.74057 -2.5,3.1875 3.5,1.58148 4.00462,2.66379 0.5,3.29073 -8.07532,1.4446 -16,11.52182 -21,13.52177 l 0,15.37622 c 0.68093,0 1.5614,0.29452 1.5614,0.93763 0,1.0625 -1.5614,1.75359 -1.5614,2.68615 0,3 4.5,-2.07582 4.5,2 0,3.08757 -4.5,0.75869 -4.5,3.0625 0,0.9375 1,1.07606 1,2 0,0.9375 -0.57383,0.9375 -1.0625,0.90625 L 207,176 c 2,-2 4,-6 5,-5 1.09967,1.09967 -2.84459,6.10987 -5,8 l 0,3 c 7,0 21.11745,-18.57576 33,-14 4,1.54033 -3,3 -5,4 -5.11328,2.55664 -11.37757,8.26823 -16,12.46875 C 215.02877,188.07756 213,194 207,197 l 0,3 c 0.42093,1 2,-1 2,1 0,0.99465 -2,3 0,3 3,0 2.00023,-1.49681 5.71875,-2 l 0.65625,-6 6.625,0 0,4 c 0.64767,0.0794 1.51356,0.0912 2,0 0.47708,0.78658 -1.57147,2.33072 -2,4 2,-1 4.32635,-4 8,-4 4,0 16.73777,-10.18244 21,-11 l 0,-56 c 0,-2.46874 -2.72135,-3 -4,-3 l 0,-7 5.5625,0 C 253,122 245,118.45744 253,119.71875 c 2.96369,0.46727 6.30045,1.76141 8,3.28125 l 23,0 0,45 -7,0 -1.25,-10 -0.0625,51 -7.09375,0 c 0,0 -0.0937,-4.0156 -0.0937,-6.375 0,-0.40647 0.11358,-1.625 -0.5625,-0.65625 -1.18751,1.67708 -0.76823,3.35417 -1.15625,5.03125 l -0.125,34 c -0.004,1.24278 1.33341,1.01018 2.875,1.375 L 269.75,249.75 248,249.65625 247.875,249 c -2.49669,0 -2.86413,1.69612 -4.875,3.25 -1.91533,1.48006 -4.63002,1.7502 -5,4.9375 L 309,257 c 0,-2.2351 3,-2.59828 4,-7 L 286,249.9375 286,244 c 4.09074,-0.56538 3.78858,-4.47939 4,-8.3125 L 296.21875,123 l 15.15625,0 7.9375,113 c 1.1538,1.55352 3.6875,-3 3.6875,0 0,2 -4,3 -4,4.9375 0,2.19613 1.80574,2.70274 3,3.0625 l 0,5.9375 -8,0.0625 c 1,3.54952 -2.29718,4.71037 -3,7 l 4,0 c 3,-2.62997 4.90963,-7.53334 6,-6 1,1.40625 -1,5.41273 -3,6 l 18,0 c 2,-1.42699 3,-5.44757 5,-7 l -4,0 c -1.92372,0.92459 -3,5 -5,5 -2.61599,0 1.59204,-2.77903 2,-5.0625 l -5.25,0.0625 0.53125,-7 c 1.81757,0.0694 3.12425,-1 3.71875,-2.5625 0,-0.4167 -0.16675,-0.4375 -1,-0.4375 -2.44223,0 -6.67369,8.74851 -8,8 -1.52557,-0.86096 5.34537,-8.27281 8.5,-12.0625 L 332.5,133 c 0,-1.44104 -1.11566,-2.88558 -3.5,-3 l 0,-7 19,0 5,37 0,-27 c 0,-2.16623 -1,-3 -2.46875,-3 L 350.5,123 368.0625,123.0625 368,130 c -2.69338,1.76214 -3.00001,2.99507 -3,6 l 0,17 c 2.29416,-0.44366 10.34129,-7 14,-11 l 0,-4 c -2,0 -5,4.99556 -5,1.5 0,-2.06344 4,-1.5 5,-4.5 l 0,-12 18,0 c 8,-7 25.23712,-17.67784 43,-31 4,-3 2,-3.499255 6,-6 3.48429,-2.178332 6,-4 5,-5 -2.3224,-2.322399 -18.12799,12.744027 -19,11 -2,-4 12,-8.556682 22,-16.5625 3.40656,-2.725181 8.3544,-3.383658 11,-6.4375 1.46091,-1.686345 2.09107,-3.209903 3.58354,-3 1.67711,0.235871 3.25963,-0.463658 4.41646,-2 1.94334,-2.834555 4.28687,-3.095622 7,-4 3,-1 0.99939,1.0625 3.5625,1.0625 1.29577,0 3.4375,-0.714264 3.4375,-1.46875 0,-1.040105 -1.99581,-0.593763 -2,-1.59375 -0.008,-1.906281 3.27906,-1.364002 6,-3 1.99185,-1.197624 3.13572,-3.299319 4.375,-4 1.98381,-1.121635 5.98381,-2.554787 4.625,-4 -1.35305,-1.439085 -5.43756,3 -7,4 -3.46589,2.218249 -4.54486,0.05569 -9,4 -1.60336,1.419511 -4.00046,0 -5.5625,2 -1.64216,2.102571 -3.85325,2.739945 -4.4375,1.40625 -1.18613,-2.707641 6,-4.004152 9,-5.40625 4.29579,-2.007705 8.47691,-4.296677 8,-5 -0.99204,-1.463013 -4.39835,2.042092 -5,1 -0.6194,-1.072841 3.36906,-4.944987 6.0625,-4.9375 C 494.50633,44.069293 496,41 497,42 c 0.8179,0.817903 -3.04952,3.394059 -2,4 0.78403,0.452662 2.47169,-1.457023 4,-3 0.85907,-0.867313 2,-0.740933 2.0625,-1.9375 0.0389,-0.744607 -1,-0.955926 -1,-1.5 0,-1.360393 3.10708,-2.171035 6.9375,-3.5625 5.06154,-1.838691 4.41279,-4 9,-4 1.68652,0 1.3954,-2.570048 3,-3 2.03168,-0.544388 5.35671,-1.266378 7,-2.382267 2.59409,-1.761542 4,-4.9506 8,-6.180233 1.04112,-0.320049 0.5637,0.5625 2,0.5625 1.79685,0 1.84492,-2.448633 3,-3 1,-0.477341 1.11036,0.0087 2,0 1.36308,-0.01336 0.62827,-0.940772 2,-2.3125 1.43067,-1.430666 3.13692,-2.88311 5.0625,-3.625 0.91935,-0.354207 1.67767,-1.069972 2.9375,-0.628743 1.42944,0.500636 3.90772,-0.887615 5,-1.433757 2,-0.9999997 3.00072,-2.8667297 4.0625,-2.9375 C 561.0002,7 560.40244,8 561.53125,8 562.56046,8 562.34292,7.0883777 563.5625,7.0625 565.21419,7.0274536 566.50147,5.50072 566,4 565.96076,3.8825632 565.72876,3.8240185 565.375,3.8125 z M 383,26 c -4.80318,0 -7,3 -7,8 0,5.058642 3,8 7,8 4.09348,0 7,-3 7,-8 0,-5 -2,-8 -7,-8 z m 0,1 c 2,0 0.9724,2.235421 0,2.46875 C 381.44714,29.841363 378.95685,31.881818 378.40625,34 378.15467,34.967836 377,37 377,34 c 0,-4 2,-7 6,-7 z m 49.59375,75.875 C 429.46255,103.05816 410.34556,115.52948 401,123 l 5.09375,-0.0312 C 415.08327,116.3439 434.06212,104.83965 433,103 c -0.059,-0.10221 -0.1975,-0.13721 -0.40625,-0.125 z M 413,121 c -0.73483,0 -0.96525,0.28476 -1.9375,1.96875 L 413,123 c 0.4363,-1.00601 1,-2 0,-2 z m -258.1875,11 c -8.81217,9 -17.20428,25 -18.8125,30 l 0,2.5614 C 139.62643,161 142.66087,152 154.375,136 l 0.4375,-4 z m 111.625,2 -0.0937,37 C 268.01487,167 269,159.50155 269,153.40625 l 6.28125,0.1875 C 274.31464,145.74858 272.01202,136.2708 266.4375,134 z M 379,146 c -5.40114,2.0625 -9.3125,7.64583 -14,11 l 0,4 14.0625,-12 L 379,146 z m 10,3 -0.96875,1.03125 -0.4375,2.96875 1.40625,0 0,-4 z m -234.96875,0.0312 C 148.20535,149.02592 144,158.13718 144,163 c 0,3 -5.44409,2.6184 -6,7.59375 -0.11449,1.02465 -5e-5,3.40625 -2,4.4375 l 0,27.03125 c 0.57865,1.08018 1.19161,2.84418 2.03125,1.46875 2.10244,-3.44404 3.1383,0.54489 3.96875,-1.53125 2,-5 6.40912,-4.89587 7.0625,-7.96875 1.5959,-7.50561 1.27463,-13.18108 3.65625,-23.03125 l 1.3125,-21.96875 0,-5e-5 z M 192.3125,152 c -1.70459,-5e-5 -2.46451,1.75953 -3.78125,3.28125 C 187.44485,156.53678 186,156.70823 186,158 c 0,1.62064 -2.28125,2.52465 -2.28125,4 0,0.48078 2.28125,-1.65625 3.28125,-2.65625 2.00757,-2.00756 3.4996,-4.47679 5.3125,-5.28125 l 0,-2.0625 z M 379,156 c -5.7016,3 -9.3125,7.6875 -14,11 l 0,5 c 4.9625,-2.9 8.66958,-7.7044 14.0625,-10.96875 L 379,156 z m -187.59375,1.71875 c -2.21509,-0.10042 -5.00445,3.37194 -6.875,4.96875 C 182.55034,164.37852 183.21224,167 184,167 c 1,0 1.43882,-2.5881 3.47048,-2.5881 3,0 -1.31901,4.37334 -3.87673,8.2756 -2.26368,3.45364 -4.37932,6.85895 -3.59375,7.3125 0.63958,0.36926 3.04749,-3.59929 6,-7.625 2.00569,-2.73473 4.2502,-6.37505 6.3125,-7.3125 C 192,163 190.66831,164.25143 190.32737,163.53114 189.8916,162.6105 191.75516,161.63689 192.3125,161 l 0,-3 c -0.28906,-0.17598 -0.58981,-0.2669 -0.90625,-0.28125 z M 379,163 c -4.94382,3.11237 -8.93225,8.03522 -14,11 l 0,3 14,-12.5 0,-1.5 z m -186.6875,5 c -3.07452,1.60349 -3.53019,4.54974 -5.3125,7.34375 -1.33593,2.09424 -2.86105,1.63176 -2.40625,5.03125 0.40338,3.01513 3.95776,-5.375 7.71875,-4.3125 l 0,-8.0625 z m 0,16 c -4.29831,3.46924 -3.01438,4.42968 -4.3125,7.3125 -1.07779,2.39352 -2.95455,4.32662 -2.96875,5.6875 -0.0313,3.00005 5.18037,-2.55313 7.28125,-4 l 0,-9 z m 152.125,15 -0.0937,18 c 1.18769,0.21604 1.89509,-0.34519 2.53125,-1 l -2.4375,-17 -5e-5,0 z M 239,200 c -3,0 -11,8 -17,11 0.0411,11.6149 0.0727,23.38545 0,35 5,-3 11.32754,-5.48401 17,-10 4.17723,-3.3256 7.28488,-7.18529 12,-11 l 0,-2 c -1.92829,-0.55988 -1.1208,-2 -3,-2 -1,0 -3,1.94058 -3,0 0,-0.70067 1.0261,-1.39034 2,-2.5 1.21608,-1.3856 2.54984,-3.17047 4,-3.5 l 0,-5 c -1.76853,0 -5.38316,8.61694 -6.375,7.875 -0.73059,-0.54651 2.04813,-3.86567 1.4375,-4.53125 C 244.57255,211.71973 234,228 232,227 c -3.2249,-1.61245 14.02701,-14.00485 14,-19 -0.0103,-1.89735 1,-1.71606 1,-3.5 0,-0.6293 0.0292,-1.5 -1,-1.5 -1,0 -2,-3 -3,-1.47071 C 241.68153,203.54562 241,200 239,200 z m 12,1 c -1.10188,1.93566 -3,4.85015 -3,7 0,1.73562 2.03174,-1.32412 3.03125,-2 L 251,201 z m -37.59375,11 C 211,212 208.65839,216 207,216 l 0,20 c 3,-2 5.60123,-19.41144 6.40625,-24 z m 133.4375,6 c -0.84532,0 -1.69611,2.18672 -2.53125,3 l 0.0312,6 c 2.33495,0 1.82151,-3 3.46875,-3 l -0.96875,-6 5e-5,0 z M 348,226 c -1.61163,1.33333 -2.41417,3 -3.6875,4 l 0.0312,7 c 2.6409,0 2.6563,-4.37079 4.6563,-5 l -1,-6 z m -45.6875,1 c -0.25626,5.00726 -0.19009,9.85271 0.125,15 l 1.21875,0 c 1,-4.80388 0.66773,-10 0.5,-15 l -1.84375,0 z M 251,229 c -15.48036,12.36483 -23.12272,17.2794 -40,28 l 9,0 c 1,-4 7,-4 10,-6 3.27556,-2.18371 3,1 0,2 -2.30264,0.76755 -3.46411,2.95916 -3.9375,3.9375 2.96963,0.20351 6.78785,0.19836 9.9375,0.0625 -0.70158,-3 1.40625,-3.65625 2.40625,-4.65625 C 241.06267,249.68733 242.5544,247 247.59375,246 l -0.15625,-3.625 c 2.22357,-0.83756 3.57059,0.16044 3.5625,-1.375 -0.02,-3.79806 0,-12 0,-12 z m 96.3125,8.0625 c -0.88483,0.18223 -2.38412,1.82291 -3,1.9375 l 0,2 C 346,241 348,239.76217 348,238 c 0,-0.7948 -0.2853,-1.02033 -0.6875,-0.9375 z M 126.03125,250 c 0,2.48189 0.48805,5 1.96875,7 l 1,0 c 0,-2 -0.65758,-4.76648 -1,-7 l -1.96875,0 z M 132,267 c 0.48353,4 3.31572,9.15343 6,11.96875 -0.80215,-4.13524 -3.54507,-7.7852 -4,-11.96875 0,0 -2,0 -2,0 z m 27.03125,0 0,1 c 0,0.93166 0.96875,0.78863 0.96875,1.4375 0,0.62286 -0.67398,0.5667 -1,0.5625 -2.42247,-0.0312 -3.33171,-1.96875 -5.96875,-1.96875 -1.38374,0 -3.06255,-0.0216 -3.03125,0.96875 0.0215,0.67942 2,0.39767 2,1.49902 0,1.10108 -4.96875,0.50066 -4.96875,2.03223 0,1.46908 3.96875,1.5092 3.96875,2.46875 0,2 -3,1.85775 -3,4 0,1.12472 2.24951,1.95536 2.46345,3 0.51844,2.53149 4.53655,2.55267 4.53655,5 0,3 2,2.52547 1.99995,3.53125 C 156.9999,291.53789 156,291 156,292 c 0,1 1.71717,0.99993 3.2187,1 4.19756,0 2.7813,2 5.7813,2 4,0 3.00071,1 3.56245,1 0.41784,0 0.4375,-0.0968 0.4375,-1 0,-2.32651 -2.9999,-1.20273 -2.99995,-2.79085 -2e-5,-0.61278 0,-1.9941 2,-0.94918 1.37888,0.72041 3.31449,2.74003 9,2.74003 1.31449,0 1,-1 2.99995,-1 2.00005,0 2.00005,1 2.3125,2.3125 0.29792,1.25147 4.68755,1.04946 4.6875,2.1875 -4e-5,0.99338 -2.96875,0.44446 -2.96875,1.5625 0,0.9384 7,1.41335 7,2.34375 0,0.59491 -4.02914,1.03326 -4,2.125 0.0392,1.46897 8.96875,-0.0575 8.96875,1.96875 0,1.26209 -4.57244,2.20342 -4.99995,1.5 -0.55348,-0.91068 -5.00005,0.66798 -5.00005,2 0,3 8.07565,0.59138 8.03125,3.25 -0.0292,1.75075 -4.99023,2.05414 -5,3.28125 -0.0197,2.46981 35.48427,1.59176 34.90625,3.5 -1.07532,3.55003 -7.9348,3.03125 -12.6875,3.03125 -3.76823,0 -11.15625,-2.06476 -11.15625,-0.0312 0,1.97098 9.01291,2.78074 16.375,7.03125 C 221.14992,331.76502 226.51288,333 232,333 c 7,0 12.32336,-2.07471 17.09375,-3.875 C 254.96674,326.90861 261,325 261,322 c 0,-1 2,-3 4.375,-2.9375 C 267.99984,319.13157 268,321 270,321 c 0.75338,0 0.26345,-1 3,-1 2,0 10.94172,-8.18835 15,-9 2.23457,-0.44691 10,-10.68811 12,-10.68811 3,0 6.33941,-5.9162 12,-12.31189 7.11908,-8.04358 14,-17 15.96875,-20.9375 C 327.96875,267.0625 308,267 308,267 c -0.42099,0.3004 -0.5,0.87151 -0.5,1.46875 0,1.42194 2.5,-0.87495 2.5,1.125 0,1 -5,3.40625 -5,6.40625 0,2 2.75826,-1.93223 3.625,-1.65625 2.08824,0.66491 -3.51592,4.93985 -3.625,6.65625 -0.0971,1.52769 1.04236,0.63953 1.03125,2.28125 C 306.01963,284.99849 298,289 298,292 c 0,3 3.21672,-1.45223 4,-1 2.48642,1.43553 -5.97974,9.02026 -7,8 -1,-1 1.61251,-2.69744 1.08547,-3.59845 -0.37994,-0.64953 -2.6496,1.21866 -3.08547,0.59845 -0.54333,-0.77309 2,-4 0.0625,-3.96875 C 291.4159,292.03125 289,299 286,297 c -2.63117,-1.75412 -7.73509,6.52982 -9,4 -1,-2 4,-4 4,-6 0,-2.09784 20.22019,-18.76167 23.1875,-27.96875 L 217,267 c -1.83629,1 -6.00676,2.49416 -8.53125,3 -5.12242,1.02639 -0.7628,-2.36882 0.53125,-3 0,0 -49.96875,0 -49.96875,0 z m 42.0625,9.28125 C 201.75779,276.22531 202,276.57123 202,278 c 0,1.78498 -2.98359,4.04625 -5.4375,4.03125 C 195.0607,282.02225 193,282 193,280 c 0,-2.04255 1.91964,-4.03125 4,-3 1.4989,0.74302 3.42971,-0.66281 4.09375,-0.71875 z M 269.52091,324 c -0.89914,0.17318 -2.17645,2 -0.52091,2 4.55245,0 18,-11 17.42643,-12 -0.88375,-1.5408 -14.8037,9.59517 -16.90552,10 z" id="meteor"/>
</svg>