<?xml version="1.0" encoding="iso-8859-1"?>
<!-- Uploaded to: SVG Repo, www.svgrepo.com, Generator: SVG Repo Mixer Tools -->
<svg version="1.1" id="Layer_1" xmlns="http://www.w3.org/2000/svg" xmlns:xlink="http://www.w3.org/1999/xlink" 
	 viewBox="0 0 511.983 511.983" xml:space="preserve">
<path style="fill:#AAB2BC;" d="M309.333,319.99H10.671C4.781,319.99,0,324.771,0,330.662v42.654c0,5.891,4.781,10.672,10.671,10.672
	h298.662c5.891,0,10.656-4.781,10.656-10.672v-42.654C319.989,324.771,315.223,319.99,309.333,319.99z"/>
<path style="fill:#CCD1D9;" d="M319.958,329.834L298.63,52.514c-0.422-5.562-5.062-9.843-10.641-9.843H31.998
	c-5.562,0-10.203,4.281-10.625,9.843L0.031,329.834c-0.219,2.969,0.797,5.891,2.812,8.062c2.016,2.188,4.859,3.422,7.828,3.422
	h298.662c2.969,0,5.797-1.234,7.828-3.422C319.177,335.724,320.192,332.803,319.958,329.834z"/>
<path style="fill:#AAB2BC;" d="M266.663,298.662H53.341c-5.89,0-10.671-4.781-10.671-10.672c0-5.889,4.781-10.67,10.671-10.67
	h213.322c5.891,0,10.672,4.781,10.672,10.67C277.335,293.881,272.553,298.662,266.663,298.662z"/>
<g>
	<path style="fill:#434A54;" d="M202.665,223.993c-5.891,0-10.672-4.781-10.672-10.672v-10.656c0-5.891,4.781-10.671,10.672-10.671
		c5.89,0,10.671,4.781,10.671,10.671v10.656C213.336,219.212,208.555,223.993,202.665,223.993z"/>
	<path style="fill:#434A54;" d="M159.994,223.993c-5.89,0-10.656-4.781-10.656-10.672v-10.656c0-5.891,4.766-10.671,10.656-10.671
		c5.891,0,10.672,4.781,10.672,10.671v10.656C170.666,219.212,165.885,223.993,159.994,223.993z"/>
	<path style="fill:#434A54;" d="M117.308,223.993c-5.89,0-10.671-4.781-10.671-10.672v-10.656c0-5.891,4.781-10.671,10.671-10.671
		c5.891,0,10.656,4.781,10.656,10.671v10.656C127.964,219.212,123.199,223.993,117.308,223.993z"/>
	<path style="fill:#434A54;" d="M71.544,242.196c-4.171,4.172-10.921,4.172-15.078,0c-4.171-4.156-4.171-10.921,0-15.078
		c4.156-4.171,10.906-4.171,15.078,0C75.716,231.274,75.716,238.039,71.544,242.196z"/>
	<path style="fill:#434A54;" d="M263.538,242.196c-4.172,4.172-10.922,4.172-15.078,0c-4.172-4.156-4.172-10.921,0-15.078
		c4.156-4.171,10.906-4.171,15.078,0C267.71,231.274,267.71,238.039,263.538,242.196z"/>
</g>
<rect x="64.001" y="117.322" style="fill:#656D78;" width="191.99" height="42.671"/>
<path style="fill:#AAB2BC;" d="M255.991,106.669H63.997c-5.891,0-10.656,4.766-10.656,10.656v42.671
	c0,5.891,4.766,10.671,10.656,10.671h191.994c5.891,0,10.672-4.781,10.672-10.671v-42.671
	C266.663,111.434,261.882,106.669,255.991,106.669z M245.335,149.324H74.669v-21.327h170.667v21.327H245.335z"/>
<path style="fill:#FFCE54;" d="M223.961,53.108H95.996c-5.891,0-10.656,4.781-10.656,10.672v74.888h149.292V63.78
	C234.633,57.889,229.851,53.108,223.961,53.108z"/>
<path style="fill:#F6BB42;" d="M223.961,53.108h-10.656c5.891,0,10.656,4.781,10.656,10.672v74.888h10.672V63.78
	C234.633,57.889,229.851,53.108,223.961,53.108z"/>
<rect x="245.331" y="330.662" style="fill:#F5F7FA;" width="255.99" height="128"/>
<path style="fill:#E6E9ED;" d="M501.327,319.99H245.335c-5.891,0-10.671,4.781-10.671,10.672v127.996
	c0,5.891,4.781,10.654,10.671,10.654h255.992c5.891,0,10.656-4.764,10.656-10.654V330.662
	C511.983,324.771,507.218,319.99,501.327,319.99z M490.655,447.986H255.991V341.318h234.664V447.986z"/>
<g>
	<path style="fill:#ED5564;" d="M426.657,373.316c0,5.891-4.781,10.672-10.672,10.672s-10.656-4.781-10.656-10.672
		s4.766-10.656,10.656-10.656S426.657,367.426,426.657,373.316z"/>
	<path style="fill:#ED5564;" d="M469.327,373.316c0,5.891-4.781,10.672-10.67,10.672c-5.891,0-10.672-4.781-10.672-10.672
		s4.781-10.656,10.672-10.656C464.546,362.66,469.327,367.426,469.327,373.316z"/>
</g>
<path style="fill:#434A54;" d="M426.657,415.986c0,5.891-4.781,10.672-10.672,10.672s-10.656-4.781-10.656-10.672
	s4.766-10.672,10.656-10.672S426.657,410.096,426.657,415.986z"/>
<path style="fill:#AAB2BC;" d="M383.987,437.314c0,5.891-4.766,10.672-10.656,10.672s-10.672-4.781-10.672-10.672
	s4.781-10.656,10.672-10.656S383.987,431.424,383.987,437.314z"/>
<g>
	<path style="fill:#434A54;" d="M469.327,415.986c0,5.891-4.781,10.672-10.67,10.672c-5.891,0-10.672-4.781-10.672-10.672
		s4.781-10.672,10.672-10.672C464.546,405.314,469.327,410.096,469.327,415.986z"/>
	<path style="fill:#434A54;" d="M330.661,405.314h-42.672c-5.891,0-10.654-4.764-10.654-10.654s4.764-10.672,10.654-10.672h42.672
		c5.891,0,10.67,4.781,10.67,10.672S336.552,405.314,330.661,405.314z"/>
</g>
<g>
	<path style="fill:#656D78;" d="M309.333,426.658c-5.891,0-10.672-4.781-10.672-10.672v-42.67c0-5.891,4.781-10.656,10.672-10.656
		s10.656,4.766,10.656,10.656v42.67C319.989,421.877,315.223,426.658,309.333,426.658z"/>
	<path style="fill:#656D78;" d="M202.665,202.666h-85.357c-5.89,0-10.671,4.765-10.671,10.656v31.999
		c0,5.891,4.781,10.672,10.671,10.672h85.357c5.89,0,10.671-4.781,10.671-10.672v-31.999
		C213.336,207.431,208.555,202.666,202.665,202.666z"/>
</g>
</svg>